<svg version="1.1" xmlns="http://www.w3.org/2000/svg" xmlns:xlink="http://www.w3.org/1999/xlink" x="0px" y="0px"
	 width="12" height="8" viewBox="0 0 12.09 8.5" enable-background="new 0 0 12.09 8.5" xml:space="preserve">
<g>
	<path fill="#95a674" d="M11.98,4.02c0.06,0.06,0.09,0.14,0.09,0.23c0,0.09-0.03,0.17-0.09,0.23l-3.9,3.9C8.05,8.41,8.02,8.44,7.97,8.45
		C7.94,8.47,7.89,8.48,7.85,8.48S7.77,8.47,7.73,8.45C7.69,8.44,7.65,8.41,7.62,8.38c-0.06-0.06-0.1-0.14-0.1-0.23
		s0.03-0.17,0.1-0.23l3.35-3.35H0.38c-0.09,0-0.17-0.03-0.23-0.09s-0.1-0.14-0.1-0.23c0-0.09,0.03-0.17,0.1-0.24
		c0.06-0.06,0.14-0.09,0.23-0.09h10.59L7.62,0.58c-0.06-0.06-0.1-0.14-0.1-0.23s0.03-0.17,0.1-0.23c0.06-0.06,0.14-0.1,0.23-0.1
		c0.09,0,0.16,0.03,0.23,0.1L11.98,4.02z"/>
</g>
</svg>