<svg version="1.1" xmlns="http://www.w3.org/2000/svg" xmlns:xlink="http://www.w3.org/1999/xlink" x="0px" y="0px"
	 width="9" height="5" viewBox="33.59 35.47 9.55 5.06" enable-background="new 33.59 35.47 9.55 5.06"
	 xml:space="preserve">
<g>
	<path fill="#fff" d="M33.64,35.66c0.01-0.03,0.03-0.06,0.06-0.08c0.05-0.05,0.11-0.07,0.18-0.07s0.13,0.02,0.18,0.07l4.33,4.32
		l4.32-4.32c0.05-0.05,0.11-0.07,0.18-0.07c0.07,0,0.13,0.02,0.18,0.07s0.07,0.11,0.07,0.18s-0.02,0.13-0.07,0.18l-4.5,4.5
		c-0.05,0.05-0.11,0.07-0.18,0.07s-0.13-0.02-0.18-0.07l-4.5-4.5c-0.03-0.02-0.04-0.05-0.06-0.08s-0.02-0.06-0.02-0.1
		S33.63,35.69,33.64,35.66z"/>
</g>
</svg>